<?xml version="1.0" encoding="UTF-8"?>
<svg xmlns="http://www.w3.org/2000/svg"
     width="1091" height="243" viewBox="0 0 1091 243"
     role="img" aria-labelledby="title desc"
     preserveAspectRatio="xMidYMid meet"
     shape-rendering="geometricPrecision">
  <title id="title">Dayframe wordmark</title>
  <desc id="desc">The Dayframe name rendered as smooth vector outlines with no embedded font.</desc>
  <g fill="#F7F8FB" fill-rule="nonzero">
    <path d="M0 0 C0 8.25 0 16.5 0 25 C-2.454 24.773 -4.909 24.546 -7.438 24.312 C-14.013 23.899 -18.934 24.121 -25 27 C-30.479 32.479 -30.339 37.918 -30.625 45.312 C-30.7 47.124 -30.775 48.935 -30.852 50.801 C-30.901 52.187 -30.95 53.572 -31 55 C-28.846 54.988 -26.692 54.977 -24.473 54.965 C-21.669 54.955 -18.866 54.946 -16.062 54.938 C-15.351 54.933 -15.351 54.933 -11.752 54.912 C-8.168 54.904 -4.584 54.947 -1 55 C0 56 0 56 0.133 61.094 C0.13 63.208 0.128 65.322 0.125 67.5 C0.128 69.614 0.13 71.728 0.133 73.906 C0 79 0 79 -1 80 C-6.026 80.074 -11.037 80.092 -16.062 80.062 C-16.776 80.06 -16.776 80.06 -20.385 80.049 C-23.923 80.037 -27.462 80.019 -31 80 C-30.998 81.15 -30.996 82.301 -30.993 83.486 C-30.971 95.408 -30.956 107.33 -30.945 119.252 C-30.94 123.707 -30.933 128.163 -30.925 132.618 C-30.912 139.004 -30.907 145.391 -30.902 151.777 C-30.897 153.785 -30.892 155.792 -30.887 157.86 C-30.887 159.702 -30.887 161.544 -30.886 163.441 C-30.884 165.073 -30.882 166.705 -30.88 168.387 C-31 172 -31 172 -32 173 C-36.499 173.1 -41 173.13 -45.5 173.125 C-46.743 173.126 -46.743 173.126 -53.031 173.133 C-59 173 -59 173 -60 172 C-60.095 169.148 -60.117 166.294 -60.114 163.441 C-60.113 161.599 -60.113 159.757 -60.113 157.86 C-60.111 156.856 -60.111 156.856 -60.098 151.777 C-60.096 149.737 -60.095 147.696 -60.093 145.594 C-60.088 139.042 -60.075 132.49 -60.062 125.938 C-60.057 121.51 -60.053 117.082 -60.049 112.654 C-60.038 101.77 -60.02 90.885 -60 80 C-67.59 80 -75.18 80 -83 80 C-83 71.75 -83 63.5 -83 55 C-75.41 54.67 -67.82 54.34 -60 54 C-59.974 52.335 -59.948 50.669 -59.922 48.953 C-59.182 20.099 -59.182 20.099 -48 8 C-33.204 -3.414 -17.779 -2.963 0 0 Z " transform="translate(530,8)" />
    <path d="M0 0 C1.598 -0.006 3.197 -0.011 4.844 -0.017 C8.246 -0.027 11.648 -0.033 15.051 -0.037 C20.204 -0.047 25.357 -0.078 30.51 -0.109 C33.819 -0.116 37.128 -0.121 40.438 -0.125 C41.96 -0.137 43.483 -0.15 45.051 -0.162 C72.251 -0.107 94.244 7.2 114.91 25.328 C132.343 44.98 138.276 68.458 137.348 94.203 C135.18 116.473 127.066 134.485 111.348 150.203 C109.966 151.606 108.584 153.008 107.16 154.453 C88.404 169.068 66.262 172.544 43.113 172.398 C41.399 172.396 39.685 172.393 37.918 172.39 C32.478 172.379 27.038 172.354 21.598 172.328 C17.895 172.318 14.191 172.309 10.488 172.301 C1.441 172.279 -7.605 172.244 -16.652 172.203 C-16.675 149.925 -16.693 127.646 -16.704 105.368 C-16.709 95.025 -16.716 84.681 -16.728 74.338 C-16.739 64.365 -16.745 54.393 -16.747 44.421 C-16.749 40.607 -16.753 36.792 -16.758 32.977 C-16.765 27.656 -16.766 22.335 -16.766 17.014 C-16.769 15.419 -16.773 13.823 -16.777 12.179 C-16.763 -2.682 -13.634 0.037 0 0 Z M13.348 27.203 C13.348 66.143 13.348 105.083 13.348 145.203 C74.135 145.203 74.135 145.203 91.348 130.203 C104.312 116.078 107.841 100.462 107.594 81.898 C106.779 66.349 100.741 53.651 90.348 42.203 C66.646 22.734 44.978 27.203 13.348 27.203 Z " transform="translate(22.65234375,8.796875)" />
    <path d="M0 0 C4.75 4.375 4.75 4.375 8 8 C8.33 3.38 8.66 -1.24 9 -6 C17.91 -6 26.82 -6 36 -6 C37.854 -2.293 37.128 2.167 37.129 6.229 C37.133 8.412 37.136 10.595 37.139 12.844 C37.138 14.032 37.138 14.032 37.133 20.047 C37.134 22.471 37.135 24.896 37.136 27.394 C37.136 32.535 37.135 37.677 37.13 42.818 C37.125 50.702 37.13 58.585 37.137 66.469 C37.136 71.453 37.135 76.438 37.133 81.422 C37.135 83.791 37.137 86.16 37.139 88.6 C37.137 89.698 37.137 89.698 37.129 95.253 C37.129 97.188 37.128 99.122 37.127 101.116 C37 106 37 106 36 112 C27.09 112 18.18 112 9 112 C9 107.05 9 102.1 9 97 C8.34 97 7.68 97 7 97 C6.67 97.66 6.67 97.66 5 101 C-9.289 113.124 -22.654 115.142 -41 114 C-55.659 110.757 -67.963 103.086 -76.688 90.812 C-83.93 78.105 -87.286 67.295 -87.312 52.75 C-87.329 50.641 -87.346 48.532 -87.363 46.359 C-86.427 29.962 -79.904 15.371 -68 4 C-46.782 -11.526 -22.698 -13.076 0 0 Z M-51 28 C-58.238 37.65 -60.592 46.884 -59.438 58.812 C-56.946 69.537 -53.045 77.52 -44 84 C-34.383 88.809 -26.57 90.238 -15.938 87.875 C-5.001 83.722 1.175 77.726 6.312 67.312 C10.844 55.732 9.372 45.434 5 34 C-1.007 24.933 -7.338 19.501 -18 17 C-31.88 15.835 -40.904 17.904 -51 28 Z " transform="translate(262,69)" />
    <path d="M0 0 C3.225 2.541 6.107 5.107 9 8 C8.979 5.876 8.959 3.751 8.938 1.562 C9 -5 9 -5 10 -6 C18.91 -6 27.82 -6 37 -6 C37 32.94 37 71.88 37 112 C28.09 112 19.18 112 10 112 C7.461 109.461 8.234 101.444 8 98 C7.051 99.031 6.102 100.062 5.125 101.125 C-6.963 112.48 -19.451 114.672 -35.508 114.402 C-51.215 113.252 -62.812 106.031 -73.938 95.188 C-87.137 78.333 -89.004 60.728 -88 40 C-84.109 22.79 -75.822 8.881 -61 -1 C-40.794 -12.226 -19.996 -11.207 0 0 Z M-51 27 C-58.49 36.432 -60.823 46.064 -60 58 C-57.63 68.663 -53.01 77.586 -44 84 C-33.373 89.243 -25.128 90.123 -13.438 87.562 C-4.214 83.891 1.149 79.248 6.062 70.625 C10.473 60.097 10.382 48.409 7.562 37.375 C2.372 28.514 -3.657 22.323 -13 18 C-27.561 14.36 -39.969 17.088 -51 27 Z " transform="translate(708,69)" />
    <path d="M0 0 C11.99 10.559 18.726 22.905 21.188 38.688 C21.404 45.03 21.368 51.344 21.188 57.688 C17.273 58.992 13.903 58.807 9.769 58.801 C8.888 58.801 8.888 58.801 4.431 58.801 C2.521 58.796 0.612 58.79 -1.355 58.785 C-3.304 58.784 -5.253 58.782 -7.262 58.781 C-13.508 58.775 -19.754 58.763 -26 58.75 C-30.226 58.745 -34.452 58.74 -38.678 58.736 C-49.056 58.725 -59.434 58.709 -69.812 58.688 C-65.861 71.038 -62.27 78.096 -50.812 84.688 C-38.815 88.115 -28.139 87.983 -16.812 82.688 C-12.191 78.99 -10.448 76.764 -7.812 71.688 C-2.695 72.54 1.019 73.673 5.75 75.625 C7.03 76.15 8.31 76.674 9.629 77.215 C10.803 77.701 11.978 78.187 13.188 78.688 C14.838 79.347 16.487 80.007 18.188 80.688 C13.317 92.863 4.533 102.012 -7.52 107.32 C-17.127 110.841 -25.265 111.868 -35.438 111.938 C-37.678 111.963 -39.918 111.989 -42.227 112.016 C-58.593 111.2 -72.35 104.309 -83.812 92.688 C-95.759 78.904 -99.783 61.551 -98.812 43.688 C-96.788 26.205 -89.926 12.431 -76.812 0.688 C-53.801 -14.853 -23.251 -16.004 0 0 Z M-64.812 25.688 C-68.812 33.297 -68.812 33.297 -68.812 37.688 C-48.683 37.688 -28.553 37.688 -7.812 37.688 C-9.346 26.952 -13.319 22.393 -21.812 15.688 C-37.243 7.025 -54.192 13.297 -64.812 25.688 Z " transform="translate(1062.8125,71.3125)" />
    <path d="M0 0 C1 1 1 1 1.098 6.785 C1.086 9.187 1.074 11.588 1.062 14.062 C1.053 16.467 1.044 18.871 1.035 21.348 C1.024 23.213 1.012 25.078 1 27 C-1.434 26.938 -3.868 26.876 -6.375 26.812 C-16.296 26.83 -24.375 28.272 -32 35 C-39.331 44.938 -39.309 54.608 -39.379 66.621 C-39.396 68.117 -39.413 69.612 -39.43 71.153 C-39.483 75.915 -39.524 80.676 -39.562 85.438 C-39.606 90.224 -39.653 95.01 -39.705 99.797 C-39.737 102.772 -39.764 105.748 -39.786 108.724 C-39.888 118.888 -39.888 118.888 -41 120 C-49.91 120 -58.82 120 -68 120 C-68 81.06 -68 42.12 -68 2 C-59.09 2 -50.18 2 -41 2 C-38.461 4.539 -39.234 12.556 -39 16 C-38.01 14.783 -37.02 13.566 -36 12.312 C-25.747 1.258 -14.716 -0.572 0 0 Z " transform="translate(613,61)" />
    <path d="M0 0 C3.692 3.139 6.217 6.072 8.75 10.188 C8.75 10.847 8.75 11.507 8.75 12.188 C9.41 12.188 10.07 12.188 10.75 12.188 C11.08 11.362 11.08 11.362 12.75 7.188 C21.075 -2.327 30.319 -6.712 42.812 -8.562 C57.885 -9.197 71.479 -6.089 82.75 4.188 C95.235 19.538 94.908 36.482 94.883 55.293 C94.884 56.894 94.885 58.495 94.886 60.144 C94.886 63.505 94.885 66.866 94.88 70.227 C94.875 75.397 94.88 80.566 94.887 85.736 C94.886 89.005 94.885 92.274 94.883 95.543 C94.885 97.097 94.887 98.651 94.889 100.252 C94.865 111.073 94.865 111.073 93.75 112.188 C89.063 112.261 84.375 112.271 79.688 112.25 C78.393 112.245 78.393 112.245 71.84 112.223 C69.83 112.211 67.821 112.199 65.75 112.188 C65.741 109.907 65.731 107.627 65.722 105.278 C65.682 96.798 65.616 88.318 65.542 79.839 C65.514 76.173 65.493 72.506 65.479 68.84 C65.458 63.562 65.411 58.285 65.359 53.008 C65.359 52.191 65.359 52.191 65.356 48.06 C65.248 39.62 64.893 32.777 60.75 25.188 C52.318 18.512 46.38 17.762 35.75 18.188 C28.286 20.29 23.895 23.157 20 30.062 C16.108 38.928 16.538 47.791 16.434 57.305 C16.423 58.088 16.423 58.088 16.371 62.054 C16.305 67.057 16.246 72.06 16.188 77.062 C16.144 80.456 16.101 83.849 16.057 87.242 C15.95 95.557 15.848 103.872 15.75 112.188 C11.271 112.214 6.792 112.234 2.312 112.25 C-0.182 112.262 -2.676 112.273 -5.246 112.285 C-11.25 112.188 -11.25 112.188 -12.25 111.188 C-12.362 105.8 -12.412 100.423 -12.426 95.035 C-12.449 91.666 -12.473 88.297 -12.498 84.928 C-12.533 79.595 -12.562 74.263 -12.576 68.93 C-12.591 63.798 -12.632 58.667 -12.676 53.535 C-12.674 51.949 -12.672 50.364 -12.67 48.73 C-12.781 38.654 -13.27 30.24 -20.688 22.688 C-27.848 17.663 -33.67 17.636 -42.25 18.188 C-49.544 21.005 -52.143 23.059 -57.25 29.188 C-61.343 38.738 -61.454 46.973 -61.566 57.207 C-61.587 58.776 -61.608 60.345 -61.629 61.961 C-61.695 66.974 -61.754 71.987 -61.812 77 C-61.856 80.398 -61.899 83.796 -61.943 87.193 C-62.05 95.525 -62.152 103.856 -62.25 112.188 C-71.49 112.188 -80.73 112.188 -90.25 112.188 C-90.25 73.248 -90.25 34.307 -90.25 -5.812 C-81.01 -5.812 -71.77 -5.812 -62.25 -5.812 C-61.92 -1.522 -61.59 2.767 -61.25 7.188 C-59.992 5.806 -58.734 4.424 -57.438 3 C-41.227 -12.039 -18.034 -11.934 0 0 Z " transform="translate(854.25,68.8125)" />
    <path d="M0 0 C10.23 0 20.46 0 31 0 C31.761 2.022 32.523 4.044 33.307 6.128 C36.149 13.674 38.991 21.22 41.834 28.766 C43.061 32.024 44.288 35.281 45.514 38.539 C47.284 43.239 49.054 47.938 50.824 52.637 C51.367 54.079 51.91 55.521 52.469 57.007 C52.99 58.387 53.51 59.768 54.046 61.19 C54.293 61.847 54.293 61.847 55.544 65.171 C56.963 68.903 58.424 72.62 59.886 76.335 C62 82 62 82 62 85 C62.66 85 63.32 85 64 85 C64.33 83.02 64.66 81.04 65 79 C66.176 75.469 67.412 71.958 68.684 68.461 C69.442 66.365 70.201 64.269 70.983 62.109 C71.793 59.887 72.603 57.665 73.438 55.375 C75.081 50.843 76.724 46.31 78.367 41.777 C79.164 39.584 79.96 37.392 80.78 35.132 C84.353 25.261 87.853 15.364 91.348 5.465 C93 1 93 1 94 0 C99.026 -0.074 104.037 -0.092 109.062 -0.062 C109.776 -0.06 109.776 -0.06 113.385 -0.049 C116.923 -0.037 120.462 -0.019 124 0 C120.317 10.561 116.51 21.057 112.5 31.5 C112.231 32.202 112.231 32.202 110.868 35.752 C108.916 40.836 106.958 45.918 105 51 C104.178 53.135 103.356 55.27 102.509 57.469 C96.912 72.003 91.301 86.531 85.681 101.056 C83.189 107.51 80.712 113.969 78.238 120.43 C76.826 124.099 75.413 127.768 74 131.438 C73.372 133.088 72.745 134.739 72.098 136.44 C66.363 151.274 60.482 163.133 46 171 C34.529 174.824 23.89 174.321 12 173 C12 164.75 12 156.5 12 148 C14.846 147.897 17.692 147.794 20.625 147.688 C27.108 147.453 30.039 146.981 36 144 C40.169 138.997 42.464 135.562 45 129.75 C45.32 129.046 45.32 129.046 46.938 125.484 C49.184 116.004 43.378 106.936 39.625 98.375 C33.441 84.138 27.576 69.784 21.771 55.389 C19.184 48.978 16.588 42.571 13.991 36.164 C12.697 32.971 11.404 29.778 10.112 26.584 C7.467 20.054 4.805 13.537 2.062 7.047 C0 2 0 2 0 0 Z " transform="translate(313,63)" />
  </g>
</svg>
